<svg xmlns="http://www.w3.org/2000/svg" width="375" viewBox="0 0 375 375" height="375" version="1.0"><path fill="#4AADC2" d="M 168.363281 107.371094 C 164.328125 106.054688 147.035156 100.414062 138.457031 97.539062 C 134.105469 108.761719 111.125 169.472656 119.042969 179.910156 C 127.777344 191.425781 159.136719 177.929688 168.269531 179.910156 C 177.402344 181.898438 176.273438 175.554688 176.273438 175.554688 Z M 168.363281 107.371094"/><path fill="#4AADC2" d="M 191.359375 73.273438 C 188.964844 70 175.339844 70.691406 175.339844 70.691406 C 175.339844 70.691406 171.878906 63.273438 169.652344 61.902344 C 167.050781 60.304688 159.777344 60.585938 159.777344 60.585938 C 159.777344 60.585938 160.457031 49.84375 157.175781 49.042969 C 150.921875 47.515625 142.601562 80.875 139.984375 92.109375 C 147.027344 94.964844 160.214844 100.058594 167.65625 101.296875 L 167.585938 100.664062 C 167.585938 100.664062 167.84375 95.238281 171.460938 93.945312 C 173.894531 93.078125 185.933594 90.605469 189.296875 87.226562 C 191.777344 84.730469 193.445312 76.117188 191.359375 73.273438 Z M 191.359375 73.273438"/><path fill="#4AADC2" d="M 202.460938 126.875 C 207.835938 125.253906 216.207031 122.285156 223.113281 117.863281 C 222.847656 114.269531 224.003906 110.261719 224.496094 107.816406 C 225.269531 103.941406 224.238281 101.726562 222.167969 96.183594 C 221.796875 95.1875 220.113281 84.125 216.746094 83.78125 C 213.425781 83.441406 208.992188 94.632812 208.992188 94.632812 C 208.992188 94.632812 199.425781 94.632812 198.28125 98.898438 C 196.910156 104.019531 191.621094 106.808594 191.417969 107.554688 C 190.621094 110.441406 192.019531 118.277344 196.617188 119.472656 C 199.421875 120.203125 201.453125 123.847656 202.460938 126.875 Z M 202.460938 126.875"/><path fill="#4AADC2" d="M 225.457031 123.34375 C 225.015625 122.9375 224.660156 122.476562 224.355469 121.988281 C 220.636719 124.007812 209.46875 129.921875 203.273438 131.617188 C 205.804688 143.546875 204.359375 173.667969 204.433594 174.957031 C 204.539062 176.867188 203.292969 178.058594 204.214844 179.585938 C 205.628906 181.917969 208.402344 182.136719 211.671875 181.546875 C 214.949219 180.945312 239.320312 187.699219 254.589844 181.3125 C 273.324219 170.03125 242.070312 129.859375 225.457031 123.34375 Z M 225.457031 123.34375"/><path fill="#4AADC2" d="M 118.25 176.140625 C 105.234375 166.132812 105.113281 143.101562 101.789062 150.058594 C 98.679688 156.5625 101.71875 172.265625 107.53125 179.15625 C 112.875 185.492188 123.886719 185.1875 124.328125 181.21875"/><path fill="#4AADC2" d="M 260.277344 168.476562 C 265.390625 171.695312 274.683594 157.980469 266.976562 153.355469 C 262.125 150.449219 261.589844 149.5625 260.222656 147.304688 C 256.925781 141.890625 261.242188 126.75 269.546875 124.800781 C 275.722656 123.351562 276.125 129.023438 272.730469 130.875 C 264.675781 135.664062 264.003906 143.699219 269.484375 147.617188 C 272.582031 149.835938 274.769531 151.414062 276.117188 156.351562 C 278.023438 163.316406 272.300781 174.398438 261.304688 177.882812 C 261.304688 177.882812 255.1875 179.257812 254.058594 176.75"/><path fill="#FABE62" d="M 192.007812 44.066406 C 192.007812 51.136719 204.683594 59.761719 204.683594 59.761719 C 204.683594 59.761719 217.304688 51.078125 217.359375 44.066406 C 217.359375 40.449219 214.414062 37.5 210.800781 37.5 C 208.019531 37.5 205.625 39.28125 204.683594 41.726562 C 203.742188 39.28125 201.347656 37.5 198.566406 37.5 C 194.953125 37.5 192.007812 40.449219 192.007812 44.066406"/><g fill="#FABE62"><g><g><path d="M 42.6875 -11.8125 C 42.6875 -10.75 42.59375 -9.472656 42.40625 -7.984375 C 42.21875 -6.492188 41.859375 -5.066406 41.328125 -3.703125 C 40.796875 -2.347656 40.078125 -1.207031 39.171875 -0.28125 C 38.265625 0.644531 37.066406 1.109375 35.578125 1.109375 C 33.617188 1.109375 32.144531 0.394531 31.15625 -1.03125 C 30.175781 -2.46875 29.472656 -4.179688 29.046875 -6.171875 C 28.617188 -8.171875 28.363281 -10.207031 28.28125 -12.28125 C 28.207031 -14.363281 28.140625 -16.015625 28.078125 -17.234375 C 24.253906 -16.597656 20.476562 -16.039062 16.75 -15.5625 C 16.644531 -14.332031 16.421875 -12.8125 16.078125 -11 C 15.734375 -9.195312 15.203125 -7.457031 14.484375 -5.78125 C 13.765625 -4.101562 12.832031 -2.648438 11.6875 -1.421875 C 10.539062 -0.203125 9.144531 0.40625 7.5 0.40625 C 6.21875 0.40625 5.21875 -0.0546875 4.5 -0.984375 C 3.789062 -1.921875 3.25 -3.023438 2.875 -4.296875 C 2.5 -5.578125 2.269531 -6.894531 2.1875 -8.25 C 2.113281 -9.613281 2.078125 -10.75 2.078125 -11.65625 C 2.078125 -14.6875 2.316406 -17.675781 2.796875 -20.625 C 3.273438 -23.570312 3.832031 -26.507812 4.46875 -29.4375 C 4.789062 -30.976562 5.21875 -32.785156 5.75 -34.859375 C 6.28125 -36.941406 6.929688 -39.085938 7.703125 -41.296875 C 8.472656 -43.503906 9.375 -45.679688 10.40625 -47.828125 C 11.445312 -49.984375 12.628906 -51.910156 13.953125 -53.609375 C 15.285156 -55.316406 16.800781 -56.703125 18.5 -57.765625 C 20.207031 -58.828125 22.097656 -59.359375 24.171875 -59.359375 C 26.191406 -59.359375 27.945312 -58.90625 29.4375 -58 C 30.925781 -57.101562 32.226562 -55.910156 33.34375 -54.421875 C 34.46875 -52.929688 35.398438 -51.238281 36.140625 -49.34375 C 36.890625 -47.457031 37.515625 -45.539062 38.015625 -43.59375 C 38.523438 -41.65625 38.953125 -39.753906 39.296875 -37.890625 C 39.640625 -36.035156 39.945312 -34.390625 40.21875 -32.953125 C 40.90625 -29.492188 41.488281 -25.992188 41.96875 -22.453125 C 42.445312 -18.921875 42.6875 -15.375 42.6875 -11.8125 Z M 27.28125 -31.203125 C 27.28125 -31.835938 27.238281 -32.882812 27.15625 -34.34375 C 27.082031 -35.8125 26.910156 -37.273438 26.640625 -38.734375 C 26.378906 -40.203125 25.96875 -41.503906 25.40625 -42.640625 C 24.851562 -43.785156 24.097656 -44.359375 23.140625 -44.359375 C 22.609375 -44.359375 22.101562 -44 21.625 -43.28125 C 21.144531 -42.5625 20.71875 -41.65625 20.34375 -40.5625 C 19.96875 -39.476562 19.632812 -38.269531 19.34375 -36.9375 C 19.050781 -35.613281 18.796875 -34.335938 18.578125 -33.109375 C 18.367188 -31.890625 18.210938 -30.785156 18.109375 -29.796875 C 18.003906 -28.816406 17.925781 -28.113281 17.875 -27.6875 C 21.0625 -27.945312 24.195312 -28.347656 27.28125 -28.890625 Z M 27.28125 -31.203125" transform="translate(13.984 283.894)"/></g></g></g><g fill="#FABE62"><g><g><path d="M 36.78125 -52.5 C 36.78125 -48.613281 36.632812 -44.753906 36.34375 -40.921875 C 36.050781 -37.097656 35.90625 -33.242188 35.90625 -29.359375 C 35.90625 -26.222656 36 -23.113281 36.1875 -20.03125 C 36.375 -16.945312 36.46875 -13.832031 36.46875 -10.6875 C 36.46875 -9.84375 36.4375 -8.820312 36.375 -7.625 C 36.320312 -6.425781 36.148438 -5.265625 35.859375 -4.140625 C 35.566406 -3.023438 35.085938 -2.066406 34.421875 -1.265625 C 33.765625 -0.472656 32.820312 -0.078125 31.59375 -0.078125 C 30 -0.078125 28.679688 -0.675781 27.640625 -1.875 C 26.609375 -3.070312 25.957031 -4.414062 25.6875 -5.90625 C 24.675781 -3.988281 23.210938 -2.363281 21.296875 -1.03125 C 19.390625 0.289062 17.316406 0.953125 15.078125 0.953125 C 12.679688 0.953125 10.617188 0.128906 8.890625 -1.515625 C 7.160156 -3.160156 5.722656 -5.15625 4.578125 -7.5 C 3.441406 -9.84375 2.59375 -12.289062 2.03125 -14.84375 C 1.476562 -17.394531 1.203125 -19.601562 1.203125 -21.46875 C 1.203125 -22.789062 1.28125 -24.300781 1.4375 -26 C 1.59375 -27.707031 1.867188 -29.4375 2.265625 -31.1875 C 2.671875 -32.945312 3.191406 -34.664062 3.828125 -36.34375 C 4.460938 -38.019531 5.269531 -39.519531 6.25 -40.84375 C 7.238281 -42.175781 8.410156 -43.238281 9.765625 -44.03125 C 11.128906 -44.832031 12.6875 -45.234375 14.4375 -45.234375 C 16.351562 -45.234375 18.1875 -44.675781 19.9375 -43.5625 C 21.695312 -42.445312 23.03125 -41.066406 23.9375 -39.421875 L 24.65625 -52.109375 C 24.707031 -53.117188 24.785156 -54.300781 24.890625 -55.65625 C 24.992188 -57.007812 25.21875 -58.296875 25.5625 -59.515625 C 25.914062 -60.742188 26.460938 -61.78125 27.203125 -62.625 C 27.953125 -63.476562 29.046875 -63.90625 30.484375 -63.90625 C 32.023438 -63.90625 33.21875 -63.53125 34.0625 -62.78125 C 34.914062 -62.039062 35.539062 -61.097656 35.9375 -59.953125 C 36.34375 -58.816406 36.582031 -57.582031 36.65625 -56.25 C 36.738281 -54.914062 36.78125 -53.664062 36.78125 -52.5 Z M 23.78125 -17.078125 C 23.78125 -18.296875 23.753906 -19.488281 23.703125 -20.65625 C 23.648438 -21.832031 23.648438 -23.03125 23.703125 -24.25 C 23.378906 -24.945312 23.003906 -25.707031 22.578125 -26.53125 C 22.148438 -27.351562 21.628906 -28.125 21.015625 -28.84375 C 20.410156 -29.5625 19.734375 -30.160156 18.984375 -30.640625 C 18.242188 -31.117188 17.445312 -31.359375 16.59375 -31.359375 C 15.632812 -31.359375 14.863281 -31.0625 14.28125 -30.46875 C 13.695312 -29.882812 13.269531 -29.179688 13 -28.359375 C 12.738281 -27.535156 12.566406 -26.644531 12.484375 -25.6875 C 12.398438 -24.726562 12.359375 -23.90625 12.359375 -23.21875 C 12.359375 -22.582031 12.410156 -21.640625 12.515625 -20.390625 C 12.628906 -19.140625 12.832031 -17.875 13.125 -16.59375 C 13.414062 -15.320312 13.828125 -14.207031 14.359375 -13.25 C 14.890625 -12.289062 15.609375 -11.8125 16.515625 -11.8125 C 17.203125 -11.8125 17.890625 -11.957031 18.578125 -12.25 C 19.273438 -12.539062 19.929688 -12.910156 20.546875 -13.359375 C 21.160156 -13.816406 21.742188 -14.320312 22.296875 -14.875 C 22.859375 -15.4375 23.351562 -15.957031 23.78125 -16.4375 Z M 23.78125 -17.078125" transform="translate(59.456 283.894)"/></g></g></g><g fill="#FABE62"><g><g><path d="M 17.546875 2.3125 C 14.835938 2.3125 12.472656 1.59375 10.453125 0.15625 C 8.429688 -1.28125 6.726562 -3.113281 5.34375 -5.34375 C 3.957031 -7.582031 2.921875 -10.070312 2.234375 -12.8125 C 1.546875 -15.550781 1.203125 -18.25 1.203125 -20.90625 C 1.203125 -23.726562 1.546875 -26.640625 2.234375 -29.640625 C 2.921875 -32.648438 3.984375 -35.390625 5.421875 -37.859375 C 6.859375 -40.328125 8.691406 -42.347656 10.921875 -43.921875 C 13.160156 -45.492188 15.820312 -46.28125 18.90625 -46.28125 C 21.882812 -46.28125 24.425781 -45.46875 26.53125 -43.84375 C 28.632812 -42.21875 30.320312 -40.195312 31.59375 -37.78125 C 32.875 -35.363281 33.78125 -32.71875 34.3125 -29.84375 C 34.84375 -26.96875 35.03125 -24.253906 34.875 -21.703125 C 34.707031 -18.878906 34.265625 -16.03125 33.546875 -13.15625 C 32.828125 -10.289062 31.773438 -7.710938 30.390625 -5.421875 C 29.015625 -3.140625 27.257812 -1.28125 25.125 0.15625 C 23 1.59375 20.472656 2.3125 17.546875 2.3125 Z M 18.34375 -33.75 C 17.550781 -33.75 16.847656 -33.320312 16.234375 -32.46875 C 15.617188 -31.625 15.113281 -30.585938 14.71875 -29.359375 C 14.320312 -28.140625 14.015625 -26.847656 13.796875 -25.484375 C 13.585938 -24.128906 13.484375 -22.945312 13.484375 -21.9375 C 13.484375 -20.664062 13.601562 -19.285156 13.84375 -17.796875 C 14.082031 -16.304688 14.414062 -14.9375 14.84375 -13.6875 C 15.269531 -12.4375 15.785156 -11.394531 16.390625 -10.5625 C 17.003906 -9.738281 17.710938 -9.328125 18.515625 -9.328125 C 19.359375 -9.328125 20.085938 -9.726562 20.703125 -10.53125 C 21.316406 -11.332031 21.804688 -12.34375 22.171875 -13.5625 C 22.546875 -14.789062 22.8125 -16.132812 22.96875 -17.59375 C 23.132812 -19.050781 23.21875 -20.421875 23.21875 -21.703125 C 23.21875 -22.867188 23.109375 -24.15625 22.890625 -25.5625 C 22.679688 -26.976562 22.378906 -28.296875 21.984375 -29.515625 C 21.585938 -30.742188 21.082031 -31.753906 20.46875 -32.546875 C 19.851562 -33.347656 19.144531 -33.75 18.34375 -33.75 Z M 18.34375 -33.75" transform="translate(99.104 283.894)"/></g></g></g><g fill="#FABE62"><g><g><path d="M 20.984375 2.875 C 17.203125 2.875 14.257812 2.378906 12.15625 1.390625 C 10.0625 0.410156 8.492188 -0.976562 7.453125 -2.78125 C 6.421875 -4.59375 5.796875 -6.773438 5.578125 -9.328125 C 5.367188 -11.890625 5.265625 -14.738281 5.265625 -17.875 C 5.265625 -20.375 5.34375 -22.882812 5.5 -25.40625 C 5.664062 -27.9375 5.90625 -30.640625 6.21875 -33.515625 C 5.476562 -33.515625 4.894531 -33.5 4.46875 -33.46875 C 4.039062 -33.445312 3.695312 -33.4375 3.4375 -33.4375 C 1.726562 -33.4375 0.25 -33.804688 -1 -34.546875 C -2.25 -35.296875 -2.875 -36.441406 -2.875 -37.984375 C -2.875 -38.941406 -2.515625 -39.789062 -1.796875 -40.53125 C -1.078125 -41.28125 -0.160156 -41.921875 0.953125 -42.453125 C 2.078125 -42.984375 3.289062 -43.40625 4.59375 -43.71875 C 5.894531 -44.039062 7.128906 -44.253906 8.296875 -44.359375 C 8.296875 -45.847656 8.398438 -47.492188 8.609375 -49.296875 C 8.828125 -51.109375 9.210938 -52.800781 9.765625 -54.375 C 10.328125 -55.945312 11.085938 -57.265625 12.046875 -58.328125 C 13.003906 -59.390625 14.226562 -59.921875 15.71875 -59.921875 C 16.570312 -59.921875 17.328125 -59.664062 17.984375 -59.15625 C 18.648438 -58.65625 19.195312 -58.019531 19.625 -57.25 C 20.050781 -56.476562 20.367188 -55.613281 20.578125 -54.65625 C 20.796875 -53.695312 20.90625 -52.765625 20.90625 -51.859375 C 20.90625 -50.796875 20.820312 -49.707031 20.65625 -48.59375 C 20.5 -47.476562 20.207031 -46.09375 19.78125 -44.4375 C 20.6875 -44.550781 21.296875 -44.617188 21.609375 -44.640625 C 21.929688 -44.671875 22.226562 -44.6875 22.5 -44.6875 C 23.40625 -44.6875 24.347656 -44.601562 25.328125 -44.4375 C 26.316406 -44.28125 27.222656 -44.015625 28.046875 -43.640625 C 28.867188 -43.265625 29.546875 -42.769531 30.078125 -42.15625 C 30.609375 -41.550781 30.875 -40.820312 30.875 -39.96875 C 30.875 -39.007812 30.488281 -38.15625 29.71875 -37.40625 C 28.945312 -36.664062 27.972656 -36.03125 26.796875 -35.5 C 25.628906 -34.96875 24.378906 -34.554688 23.046875 -34.265625 C 21.722656 -33.972656 20.476562 -33.773438 19.3125 -33.671875 C 18.988281 -31.492188 18.757812 -29.484375 18.625 -27.640625 C 18.5 -25.804688 18.351562 -23.957031 18.1875 -22.09375 C 18.082031 -21.195312 17.988281 -20.28125 17.90625 -19.34375 C 17.832031 -18.414062 17.796875 -17.472656 17.796875 -16.515625 C 17.796875 -15.828125 17.820312 -15.015625 17.875 -14.078125 C 17.925781 -13.148438 18.109375 -12.257812 18.421875 -11.40625 C 18.742188 -10.5625 19.25 -9.832031 19.9375 -9.21875 C 20.632812 -8.601562 21.59375 -8.296875 22.8125 -8.296875 C 23.5625 -8.296875 24.332031 -8.363281 25.125 -8.5 C 25.925781 -8.632812 26.726562 -8.703125 27.53125 -8.703125 C 28.90625 -8.703125 29.898438 -8.222656 30.515625 -7.265625 C 31.128906 -6.304688 31.4375 -5.082031 31.4375 -3.59375 C 31.4375 -2.476562 31.101562 -1.503906 30.4375 -0.671875 C 29.769531 0.148438 28.929688 0.8125 27.921875 1.3125 C 26.910156 1.820312 25.78125 2.207031 24.53125 2.46875 C 23.28125 2.738281 22.097656 2.875 20.984375 2.875 Z M 20.984375 2.875" transform="translate(135.641 283.894)"/></g></g></g><g fill="#FABE62"><g><g><path d="M 35.828125 -14.203125 C 35.828125 -12.390625 35.253906 -10.617188 34.109375 -8.890625 C 32.960938 -7.160156 31.523438 -5.617188 29.796875 -4.265625 C 28.066406 -2.910156 26.21875 -1.820312 24.25 -1 C 22.28125 -0.175781 20.472656 0.234375 18.828125 0.234375 C 16.003906 0.234375 13.488281 -0.46875 11.28125 -1.875 C 9.082031 -3.28125 7.238281 -5.070312 5.75 -7.25 C 4.257812 -9.4375 3.128906 -11.847656 2.359375 -14.484375 C 1.585938 -17.117188 1.203125 -19.6875 1.203125 -22.1875 C 1.203125 -24.84375 1.570312 -27.6875 2.3125 -30.71875 C 3.0625 -33.75 4.191406 -36.539062 5.703125 -39.09375 C 7.222656 -41.644531 9.140625 -43.769531 11.453125 -45.46875 C 13.765625 -47.175781 16.515625 -48.03125 19.703125 -48.03125 C 21.515625 -48.03125 23.242188 -47.722656 24.890625 -47.109375 C 26.546875 -46.503906 27.984375 -45.640625 29.203125 -44.515625 C 30.421875 -43.398438 31.398438 -42.070312 32.140625 -40.53125 C 32.890625 -38.988281 33.265625 -37.257812 33.265625 -35.34375 C 33.265625 -32.84375 32.734375 -30.5 31.671875 -28.3125 C 30.609375 -26.132812 29.195312 -24.25 27.4375 -22.65625 C 25.6875 -21.0625 23.664062 -19.769531 21.375 -18.78125 C 19.09375 -17.800781 16.753906 -17.257812 14.359375 -17.15625 C 14.578125 -15.613281 15.203125 -14.492188 16.234375 -13.796875 C 17.273438 -13.109375 18.515625 -12.765625 19.953125 -12.765625 C 21.015625 -12.765625 22.050781 -13.03125 23.0625 -13.5625 C 24.070312 -14.09375 25.054688 -14.691406 26.015625 -15.359375 C 26.972656 -16.023438 27.914062 -16.625 28.84375 -17.15625 C 29.769531 -17.6875 30.710938 -17.953125 31.671875 -17.953125 C 32.734375 -17.953125 33.691406 -17.601562 34.546875 -16.90625 C 35.398438 -16.21875 35.828125 -15.316406 35.828125 -14.203125 Z M 22.90625 -33.75 C 22.90625 -34.4375 22.71875 -35.148438 22.34375 -35.890625 C 21.96875 -36.640625 21.378906 -37.015625 20.578125 -37.015625 C 19.410156 -37.015625 18.425781 -36.707031 17.625 -36.09375 C 16.832031 -35.488281 16.171875 -34.71875 15.640625 -33.78125 C 15.109375 -32.851562 14.695312 -31.859375 14.40625 -30.796875 C 14.113281 -29.734375 13.941406 -28.75 13.890625 -27.84375 C 14.628906 -28 15.515625 -28.210938 16.546875 -28.484375 C 17.585938 -28.753906 18.570312 -29.113281 19.5 -29.5625 C 20.4375 -30.007812 21.238281 -30.578125 21.90625 -31.265625 C 22.570312 -31.960938 22.90625 -32.789062 22.90625 -33.75 Z M 22.90625 -33.75" transform="translate(166.275 283.894)"/></g></g></g><g fill="#FABE62"><g><g><path d="M 36.296875 -11.25 C 36.296875 -10.289062 36.253906 -9.039062 36.171875 -7.5 C 36.097656 -5.957031 35.875 -4.453125 35.5 -2.984375 C 35.132812 -1.523438 34.550781 -0.265625 33.75 0.796875 C 32.945312 1.859375 31.832031 2.390625 30.40625 2.390625 C 28.4375 2.390625 26.914062 1.75 25.84375 0.46875 C 24.78125 -0.800781 24.273438 -2.394531 24.328125 -4.3125 C 22.628906 -2.820312 20.703125 -1.648438 18.546875 -0.796875 C 16.390625 0.0546875 14.195312 0.484375 11.96875 0.484375 C 10.425781 0.484375 8.960938 0.113281 7.578125 -0.625 C 6.191406 -1.375 4.96875 -2.332031 3.90625 -3.5 C 2.84375 -4.675781 1.992188 -5.992188 1.359375 -7.453125 C 0.722656 -8.921875 0.40625 -10.375 0.40625 -11.8125 C 0.40625 -14.363281 1.1875 -16.597656 2.75 -18.515625 C 4.320312 -20.429688 6.25 -22.066406 8.53125 -23.421875 C 10.820312 -24.773438 13.253906 -25.847656 15.828125 -26.640625 C 18.410156 -27.441406 20.710938 -27.976562 22.734375 -28.25 C 22.734375 -28.507812 22.742188 -28.742188 22.765625 -28.953125 C 22.796875 -29.171875 22.8125 -29.414062 22.8125 -29.6875 C 22.8125 -31.332031 22.359375 -32.660156 21.453125 -33.671875 C 20.554688 -34.679688 19.285156 -35.1875 17.640625 -35.1875 C 16.304688 -35.1875 15.160156 -34.957031 14.203125 -34.5 C 13.242188 -34.050781 12.335938 -33.546875 11.484375 -32.984375 C 10.640625 -32.429688 9.789062 -31.925781 8.9375 -31.46875 C 8.082031 -31.019531 7.125 -30.796875 6.0625 -30.796875 C 4.894531 -30.796875 3.894531 -31.164062 3.0625 -31.90625 C 2.238281 -32.65625 1.828125 -33.613281 1.828125 -34.78125 C 1.828125 -36.539062 2.347656 -38.140625 3.390625 -39.578125 C 4.429688 -41.015625 5.734375 -42.222656 7.296875 -43.203125 C 8.867188 -44.191406 10.570312 -44.960938 12.40625 -45.515625 C 14.238281 -46.078125 15.925781 -46.359375 17.46875 -46.359375 C 18.90625 -46.359375 20.34375 -46.179688 21.78125 -45.828125 C 23.21875 -45.484375 24.570312 -44.953125 25.84375 -44.234375 C 27.125 -43.523438 28.28125 -42.648438 29.3125 -41.609375 C 30.351562 -40.566406 31.191406 -39.359375 31.828125 -37.984375 C 32.785156 -36.015625 33.554688 -33.925781 34.140625 -31.71875 C 34.734375 -29.507812 35.1875 -27.25 35.5 -24.9375 C 35.820312 -22.625 36.035156 -20.304688 36.140625 -17.984375 C 36.242188 -15.671875 36.296875 -13.425781 36.296875 -11.25 Z M 23.53125 -13.796875 L 23.296875 -19.234375 C 23.191406 -19.234375 23.082031 -19.242188 22.96875 -19.265625 C 22.863281 -19.296875 22.757812 -19.3125 22.65625 -19.3125 C 21.96875 -19.3125 21.101562 -19.132812 20.0625 -18.78125 C 19.03125 -18.4375 18.035156 -17.957031 17.078125 -17.34375 C 16.117188 -16.738281 15.304688 -16.0625 14.640625 -15.3125 C 13.972656 -14.570312 13.640625 -13.800781 13.640625 -13 C 13.640625 -12.257812 13.90625 -11.753906 14.4375 -11.484375 C 14.96875 -11.222656 15.582031 -11.09375 16.28125 -11.09375 C 17.445312 -11.09375 18.691406 -11.394531 20.015625 -12 C 21.347656 -12.613281 22.519531 -13.210938 23.53125 -13.796875 Z M 23.53125 -13.796875" transform="translate(222.117 283.894)"/></g></g></g><g fill="#FABE62"><g><g><path d="M 39.5 -37.09375 C 39.070312 -33.21875 38.644531 -29.363281 38.21875 -25.53125 C 37.789062 -21.695312 37.5 -17.867188 37.34375 -14.046875 C 37.070312 -9.628906 36.960938 -5.453125 37.015625 -1.515625 C 37.066406 2.421875 37.09375 6.597656 37.09375 11.015625 C 37.09375 12.078125 37.078125 13.378906 37.046875 14.921875 C 37.023438 16.460938 36.828125 17.953125 36.453125 19.390625 C 36.085938 20.828125 35.492188 22.050781 34.671875 23.0625 C 33.847656 24.070312 32.609375 24.578125 30.953125 24.578125 C 30.160156 24.578125 29.484375 24.335938 28.921875 23.859375 C 28.359375 23.378906 27.878906 22.753906 27.484375 21.984375 C 27.085938 21.210938 26.769531 20.347656 26.53125 19.390625 C 26.289062 18.429688 26.09375 17.445312 25.9375 16.4375 C 25.664062 14.363281 25.515625 12.300781 25.484375 10.25 C 25.460938 8.207031 25.453125 6.707031 25.453125 5.75 L 25.453125 -4.953125 C 24.234375 -3.347656 22.648438 -2.132812 20.703125 -1.3125 C 18.765625 -0.488281 16.835938 -0.078125 14.921875 -0.078125 C 12.523438 -0.078125 10.460938 -0.648438 8.734375 -1.796875 C 7.003906 -2.941406 5.582031 -4.40625 4.46875 -6.1875 C 3.351562 -7.96875 2.53125 -9.921875 2 -12.046875 C 1.46875 -14.171875 1.203125 -16.242188 1.203125 -18.265625 L 1.203125 -18.75 C 1.203125 -21.519531 1.625 -24.507812 2.46875 -27.71875 C 3.320312 -30.9375 4.585938 -33.929688 6.265625 -36.703125 C 7.941406 -39.472656 10.039062 -41.773438 12.5625 -43.609375 C 15.09375 -45.441406 18.035156 -46.359375 21.390625 -46.359375 C 23.191406 -46.359375 24.847656 -45.984375 26.359375 -45.234375 C 27.878906 -44.492188 28.957031 -43.269531 29.59375 -41.5625 C 30.019531 -42.789062 30.671875 -43.789062 31.546875 -44.5625 C 32.429688 -45.332031 33.566406 -45.71875 34.953125 -45.71875 C 36.703125 -45.71875 37.9375 -45.144531 38.65625 -44 C 39.375 -42.851562 39.734375 -41.59375 39.734375 -40.21875 C 39.734375 -39.625 39.707031 -39.085938 39.65625 -38.609375 C 39.601562 -38.140625 39.550781 -37.632812 39.5 -37.09375 Z M 21.140625 -35.1875 C 19.921875 -35.1875 18.78125 -34.691406 17.71875 -33.703125 C 16.65625 -32.722656 15.722656 -31.523438 14.921875 -30.109375 C 14.117188 -28.703125 13.488281 -27.203125 13.03125 -25.609375 C 12.582031 -24.015625 12.359375 -22.609375 12.359375 -21.390625 C 12.359375 -20.640625 12.425781 -19.835938 12.5625 -18.984375 C 12.695312 -18.140625 12.910156 -17.332031 13.203125 -16.5625 C 13.492188 -15.789062 13.890625 -15.148438 14.390625 -14.640625 C 14.898438 -14.140625 15.554688 -13.890625 16.359375 -13.890625 C 17.046875 -13.890625 17.851562 -14.0625 18.78125 -14.40625 C 19.71875 -14.75 20.640625 -15.195312 21.546875 -15.75 C 22.453125 -16.3125 23.25 -16.9375 23.9375 -17.625 C 24.625 -18.320312 25.101562 -18.988281 25.375 -19.625 C 25.53125 -20 25.660156 -20.554688 25.765625 -21.296875 C 25.878906 -22.046875 25.972656 -22.832031 26.046875 -23.65625 C 26.128906 -24.476562 26.195312 -25.285156 26.25 -26.078125 C 26.300781 -26.878906 26.328125 -27.492188 26.328125 -27.921875 C 26.328125 -28.566406 26.179688 -29.300781 25.890625 -30.125 C 25.597656 -30.945312 25.210938 -31.742188 24.734375 -32.515625 C 24.253906 -33.285156 23.691406 -33.921875 23.046875 -34.421875 C 22.410156 -34.929688 21.773438 -35.1875 21.140625 -35.1875 Z M 21.140625 -35.1875" transform="translate(260.808 283.894)"/></g></g></g><g fill="#FABE62"><g><g><path d="M 37.34375 -22.8125 C 37.34375 -19.894531 37.046875 -17 36.453125 -14.125 C 35.867188 -11.25 34.882812 -8.679688 33.5 -6.421875 C 32.125 -4.160156 30.28125 -2.335938 27.96875 -0.953125 C 25.65625 0.421875 22.769531 1.109375 19.3125 1.109375 C 15.90625 1.109375 13.054688 0.429688 10.765625 -0.921875 C 8.484375 -2.273438 6.660156 -4.066406 5.296875 -6.296875 C 3.941406 -8.535156 2.984375 -11.0625 2.421875 -13.875 C 1.867188 -16.695312 1.59375 -19.570312 1.59375 -22.5 C 1.59375 -25.6875 1.96875 -28.851562 2.71875 -32 C 2.875 -32.84375 3.175781 -34.019531 3.625 -35.53125 C 4.082031 -37.050781 4.671875 -38.539062 5.390625 -40 C 6.109375 -41.46875 6.929688 -42.734375 7.859375 -43.796875 C 8.785156 -44.867188 9.8125 -45.40625 10.9375 -45.40625 C 12 -45.40625 12.847656 -45.109375 13.484375 -44.515625 C 14.117188 -43.929688 14.625 -43.203125 15 -42.328125 C 15.375 -41.453125 15.613281 -40.519531 15.71875 -39.53125 C 15.820312 -38.550781 15.875 -37.660156 15.875 -36.859375 C 15.875 -35.640625 15.78125 -34.441406 15.59375 -33.265625 C 15.40625 -32.097656 15.207031 -30.929688 15 -29.765625 C 14.789062 -28.171875 14.59375 -26.570312 14.40625 -24.96875 C 14.21875 -23.375 14.125 -21.78125 14.125 -20.1875 C 14.125 -19.382812 14.160156 -18.488281 14.234375 -17.5 C 14.316406 -16.519531 14.515625 -15.578125 14.828125 -14.671875 C 15.148438 -13.773438 15.601562 -13.019531 16.1875 -12.40625 C 16.78125 -11.789062 17.609375 -11.484375 18.671875 -11.484375 C 20.054688 -11.484375 21.160156 -11.851562 21.984375 -12.59375 C 22.804688 -13.34375 23.414062 -14.273438 23.8125 -15.390625 C 24.21875 -16.515625 24.472656 -17.710938 24.578125 -18.984375 C 24.679688 -20.265625 24.734375 -21.4375 24.734375 -22.5 C 24.734375 -24.84375 24.570312 -27.144531 24.25 -29.40625 C 23.9375 -31.664062 23.644531 -33.960938 23.375 -36.296875 C 23.320312 -36.566406 23.296875 -36.941406 23.296875 -37.421875 C 23.296875 -38.222656 23.425781 -39.019531 23.6875 -39.8125 C 23.957031 -40.613281 24.332031 -41.332031 24.8125 -41.96875 C 25.289062 -42.601562 25.875 -43.117188 26.5625 -43.515625 C 27.257812 -43.921875 28.035156 -44.125 28.890625 -44.125 C 30.054688 -44.125 31.085938 -43.710938 31.984375 -42.890625 C 32.890625 -42.066406 33.648438 -41 34.265625 -39.6875 C 34.878906 -38.382812 35.382812 -36.921875 35.78125 -35.296875 C 36.1875 -33.679688 36.503906 -32.085938 36.734375 -30.515625 C 36.972656 -28.953125 37.132812 -27.476562 37.21875 -26.09375 C 37.300781 -24.707031 37.34375 -23.613281 37.34375 -22.8125 Z M 37.34375 -22.8125" transform="translate(301.733 283.894)"/></g></g></g><g fill="#FABE62"><g><g><path d="M 15.5625 -55.6875 C 15.5625 -54.945312 15.359375 -54.28125 14.953125 -53.6875 C 14.554688 -53.101562 14.039062 -52.585938 13.40625 -52.140625 C 12.769531 -51.691406 12.078125 -51.347656 11.328125 -51.109375 C 10.585938 -50.867188 9.894531 -50.75 9.25 -50.75 C 8.1875 -50.75 7.253906 -51.015625 6.453125 -51.546875 C 5.660156 -52.078125 5.265625 -52.898438 5.265625 -54.015625 C 5.265625 -54.816406 5.460938 -55.519531 5.859375 -56.125 C 6.265625 -56.738281 6.757812 -57.242188 7.34375 -57.640625 C 7.925781 -58.046875 8.585938 -58.351562 9.328125 -58.5625 C 10.078125 -58.78125 10.796875 -58.890625 11.484375 -58.890625 C 12.492188 -58.890625 13.425781 -58.648438 14.28125 -58.171875 C 15.132812 -57.691406 15.5625 -56.863281 15.5625 -55.6875 Z M 16.203125 -28.5625 C 16.203125 -27.820312 16.203125 -27.035156 16.203125 -26.203125 C 16.203125 -25.378906 16.175781 -24.597656 16.125 -23.859375 C 16.0625 -22.953125 16.03125 -21.738281 16.03125 -20.21875 C 16.03125 -18.707031 15.976562 -17.070312 15.875 -15.3125 C 15.769531 -13.5625 15.597656 -11.78125 15.359375 -9.96875 C 15.117188 -8.164062 14.734375 -6.519531 14.203125 -5.03125 C 13.671875 -3.539062 12.960938 -2.328125 12.078125 -1.390625 C 11.203125 -0.460938 10.101562 0.0234375 8.78125 0.078125 C 7.769531 0.128906 6.914062 -0.265625 6.21875 -1.109375 C 5.53125 -1.960938 4.957031 -3.066406 4.5 -4.421875 C 4.050781 -5.785156 3.71875 -7.300781 3.5 -8.96875 C 3.289062 -10.644531 3.132812 -12.269531 3.03125 -13.84375 C 2.925781 -15.414062 2.875 -16.863281 2.875 -18.1875 C 2.875 -19.519531 2.875 -20.503906 2.875 -21.140625 C 2.875 -21.992188 2.875 -23.203125 2.875 -24.765625 C 2.875 -26.335938 2.925781 -28.023438 3.03125 -29.828125 C 3.132812 -31.640625 3.332031 -33.476562 3.625 -35.34375 C 3.914062 -37.207031 4.34375 -38.910156 4.90625 -40.453125 C 5.46875 -41.992188 6.195312 -43.242188 7.09375 -44.203125 C 8 -45.160156 9.144531 -45.640625 10.53125 -45.640625 C 11.96875 -45.640625 13.054688 -44.921875 13.796875 -43.484375 C 14.546875 -42.046875 15.101562 -40.367188 15.46875 -38.453125 C 15.84375 -36.535156 16.054688 -34.632812 16.109375 -32.75 C 16.171875 -30.863281 16.203125 -29.46875 16.203125 -28.5625 Z M 16.203125 -28.5625" transform="translate(341.541 283.894)"/></g></g></g><g fill="#4AADC2"><g><g><path d="M 13.6875 -0.796875 C 12.4375 -0.171875 11.035156 0.140625 9.484375 0.140625 C 7.929688 0.140625 6.53125 -0.171875 5.28125 -0.796875 C 4.039062 -1.421875 3.050781 -2.351562 2.3125 -3.59375 C 1.570312 -4.84375 1.203125 -6.316406 1.203125 -8.015625 C 1.203125 -10.566406 1.972656 -12.597656 3.515625 -14.109375 C 5.054688 -15.617188 7.050781 -16.375 9.5 -16.375 C 11.945312 -16.375 13.941406 -15.617188 15.484375 -14.109375 C 17.035156 -12.597656 17.8125 -10.566406 17.8125 -8.015625 C 17.8125 -6.316406 17.4375 -4.84375 16.6875 -3.59375 C 15.9375 -2.351562 14.9375 -1.421875 13.6875 -0.796875 Z M 9.5 -3.3125 C 10.03125 -3.3125 10.488281 -3.546875 10.875 -4.015625 C 11.269531 -4.492188 11.550781 -5.082031 11.71875 -5.78125 C 11.882812 -6.476562 11.96875 -7.222656 11.96875 -8.015625 C 11.96875 -8.816406 11.878906 -9.578125 11.703125 -10.296875 C 11.523438 -11.015625 11.242188 -11.625 10.859375 -12.125 C 10.472656 -12.632812 10.019531 -12.890625 9.5 -12.890625 C 8.988281 -12.890625 8.539062 -12.632812 8.15625 -12.125 C 7.78125 -11.625 7.5 -11.007812 7.3125 -10.28125 C 7.125 -9.5625 7.03125 -8.804688 7.03125 -8.015625 C 7.03125 -7.222656 7.117188 -6.476562 7.296875 -5.78125 C 7.484375 -5.082031 7.769531 -4.492188 8.15625 -4.015625 C 8.539062 -3.546875 8.988281 -3.3125 9.5 -3.3125 Z M 9.5 -3.3125" transform="translate(142.464 336.886)"/></g></g></g><g fill="#4AADC2"><g><g><path d="M 16.734375 -2.25 C 16.734375 -1.550781 16.523438 -1 16.109375 -0.59375 C 15.703125 -0.195312 15.101562 0 14.3125 0 C 14.113281 0 13.910156 -0.0195312 13.703125 -0.0625 C 13.492188 -0.113281 13.273438 -0.203125 13.046875 -0.328125 C 12.816406 -0.453125 12.613281 -0.570312 12.4375 -0.6875 C 12.269531 -0.800781 12.054688 -0.972656 11.796875 -1.203125 C 11.535156 -1.429688 11.328125 -1.609375 11.171875 -1.734375 C 11.023438 -1.867188 10.789062 -2.085938 10.46875 -2.390625 C 10.15625 -2.691406 9.929688 -2.914062 9.796875 -3.0625 L 5.453125 -7.15625 L 5.453125 -2.015625 C 5.453125 -1.242188 5.304688 -0.710938 5.015625 -0.421875 C 4.722656 -0.140625 4.257812 0 3.625 0 C 2.925781 0 2.410156 -0.15625 2.078125 -0.46875 C 1.753906 -0.789062 1.59375 -1.320312 1.59375 -2.0625 L 1.59375 -13.515625 C 1.59375 -14.410156 1.820312 -15.085938 2.28125 -15.546875 C 2.738281 -16.003906 3.394531 -16.234375 4.25 -16.234375 C 4.832031 -16.234375 5.300781 -16.140625 5.65625 -15.953125 C 6.007812 -15.773438 6.429688 -15.453125 6.921875 -14.984375 L 12.921875 -9 L 12.921875 -14.171875 C 12.921875 -14.847656 13.085938 -15.359375 13.421875 -15.703125 C 13.765625 -16.046875 14.226562 -16.21875 14.8125 -16.21875 C 15.488281 -16.21875 15.976562 -16.054688 16.28125 -15.734375 C 16.582031 -15.421875 16.734375 -14.910156 16.734375 -14.203125 Z M 16.734375 -2.25" transform="translate(178.603 336.886)"/></g></g></g><g fill="#4AADC2"><g><g><path d="M 10.71875 -12.25 C 10.71875 -12.738281 10.390625 -12.984375 9.734375 -12.984375 C 9.078125 -12.984375 8.507812 -12.613281 8.03125 -11.875 C 7.5625 -11.132812 7.328125 -9.894531 7.328125 -8.15625 C 7.328125 -6.539062 7.597656 -5.363281 8.140625 -4.625 C 8.679688 -3.894531 9.328125 -3.53125 10.078125 -3.53125 C 10.304688 -3.53125 10.519531 -3.578125 10.71875 -3.671875 C 10.914062 -3.765625 11.078125 -3.90625 11.203125 -4.09375 C 11.335938 -4.289062 11.40625 -4.519531 11.40625 -4.78125 C 11.019531 -4.78125 10.6875 -4.851562 10.40625 -5 C 10.132812 -5.144531 9.9375 -5.320312 9.8125 -5.53125 C 9.6875 -5.75 9.625 -5.984375 9.625 -6.234375 C 9.625 -6.804688 9.773438 -7.234375 10.078125 -7.515625 C 10.378906 -7.796875 10.890625 -7.9375 11.609375 -7.9375 L 14.484375 -7.9375 C 15.398438 -7.9375 16.109375 -7.738281 16.609375 -7.34375 C 17.117188 -6.945312 17.375 -6.253906 17.375 -5.265625 C 17.375 -3.804688 16.675781 -2.535156 15.28125 -1.453125 C 13.894531 -0.367188 12.242188 0.171875 10.328125 0.171875 C 8.578125 0.171875 7.019531 -0.144531 5.65625 -0.78125 C 4.289062 -1.414062 3.207031 -2.359375 2.40625 -3.609375 C 1.601562 -4.867188 1.203125 -6.359375 1.203125 -8.078125 C 1.203125 -10.640625 1.976562 -12.660156 3.53125 -14.140625 C 5.082031 -15.628906 7.132812 -16.375 9.6875 -16.375 C 10.707031 -16.375 11.617188 -16.296875 12.421875 -16.140625 C 13.222656 -15.992188 13.890625 -15.796875 14.421875 -15.546875 C 14.953125 -15.296875 15.394531 -14.992188 15.75 -14.640625 C 16.101562 -14.285156 16.351562 -13.910156 16.5 -13.515625 C 16.65625 -13.117188 16.734375 -12.707031 16.734375 -12.28125 C 16.734375 -11.976562 16.6875 -11.6875 16.59375 -11.40625 C 16.5 -11.132812 16.328125 -10.859375 16.078125 -10.578125 C 15.835938 -10.304688 15.460938 -10.082031 14.953125 -9.90625 C 14.453125 -9.726562 13.84375 -9.640625 13.125 -9.640625 C 12.082031 -9.640625 11.421875 -9.796875 11.140625 -10.109375 C 10.859375 -10.421875 10.71875 -11.132812 10.71875 -12.25 Z M 10.71875 -12.25" transform="translate(213.984 336.886)"/></g></g></g></svg>